<svg xmlns="http://www.w3.org/2000/svg" xmlns:xlink="http://www.w3.org/1999/xlink" viewBox="0 0 450 93" version="1.1" viewport="0 0 1600px 330px">
<g id="surface1">
<path style=" stroke:none;fill-rule:nonzero;fill:rgb(100%,100%,100%);fill-opacity:1;" d="M 357.679688 12.699219 C 356.445312 17.199219 354.792969 31.21875 355.226562 33.5 C 355.492188 34.898438 355.304688 36.246094 354.800781 36.558594 C 353.617188 37.292969 353.757812 44.601562 355.039062 49.199219 C 355.90625 52.300781 356.5625 53 358.601562 53 C 362.117188 53 365.9375 50.800781 370.410156 46.199219 C 373.425781 43.101562 374.15625 41.683594 373.667969 39.898438 C 373.011719 37.5 366 32 363.601562 32 C 359.976562 32 359.066406 30.898438 359.632812 27.199219 C 359.945312 25.175781 360.878906 21.351562 361.699219 18.75 C 362.898438 14.949219 362.953125 13.699219 361.976562 12.5 C 360.351562 10.503906 358.253906 10.601562 357.679688 12.699219 Z M 368.199219 40.699219 C 368.902344 41.542969 368.398438 42.644531 366.5 44.410156 C 361.84375 48.746094 359.976562 47.898438 357.636719 40.398438 C 356.628906 37.179688 360.601562 35.707031 364.398438 37.890625 C 365.898438 38.753906 367.664062 40.058594 368.199219 40.699219 "/>
<path style=" stroke:none;fill-rule:nonzero;fill:rgb(100%,100%,100%);fill-opacity:1;" d="M 412.101562 16.351562 C 411.601562 17.648438 410.464844 18.988281 409.550781 19.351562 C 408.21875 19.875 408.023438 20.949219 408.550781 24.949219 C 408.90625 27.648438 408.90625 31.558594 408.550781 33.550781 C 407.980469 36.75 407.628906 37.117188 405.699219 36.535156 C 396.800781 33.84375 395.859375 33.738281 394.300781 35.300781 C 391.980469 37.617188 391.464844 45.101562 393.367188 48.800781 C 396.554688 55 400.808594 55.238281 405.859375 49.5 C 409.296875 45.601562 410 46.300781 410 53.601562 C 410 57.199219 410.308594 58.039062 411.550781 57.800781 C 412.855469 57.546875 413.148438 55.300781 413.398438 43.5 C 413.566406 35.800781 414.277344 26.710938 414.980469 23.300781 C 416.28125 17 415.964844 14 414 14 C 413.445312 14 412.597656 15.050781 412.101562 16.351562 Z M 402.199219 40.722656 C 404.605469 42.851562 404.5 45.261719 401.898438 47.605469 C 399.800781 49.5 399.800781 49.5 398.414062 47.601562 C 396.660156 45.199219 396.5625 41.835938 398.199219 40.199219 C 399.734375 38.667969 399.898438 38.6875 402.199219 40.722656 "/>
<path style=" stroke:none;fill-rule:nonzero;fill:rgb(100%,100%,100%);fill-opacity:1;" d="M 210.527344 16.898438 C 210.1875 17.445312 209.636719 21 209.320312 24.699219 C 208.648438 32.601562 204.546875 41.4375 199.101562 46.710938 C 196.300781 49.417969 195.921875 50.265625 196.945312 51.5 C 198.859375 53.800781 195.398438 54.699219 193 52.527344 C 190.5 50.261719 190.472656 49.527344 192.800781 47.199219 C 195.117188 44.882812 199.476562 27.898438 198.625 24.5 C 198.273438 23.101562 196.898438 21.28125 195.5 20.371094 C 190.414062 17.054688 185.691406 22.800781 184.128906 34.199219 C 183.144531 41.398438 185.019531 49.21875 188.875 54 C 191.191406 56.871094 192.398438 57.5 195.601562 57.5 C 199.199219 57.5 199.527344 57.269531 199.851562 54.5 C 200.046875 52.800781 200.957031 50.632812 201.949219 49.5 C 202.917969 48.394531 204.460938 45.800781 205.398438 43.699219 C 206.339844 41.601562 207.636719 40.078125 208.300781 40.300781 C 208.964844 40.523438 209.945312 44 210.5 48.101562 C 211.296875 54 211.875 55.570312 213.351562 55.851562 C 214.964844 56.15625 215.15625 55.648438 214.851562 51.851562 C 214.65625 49.449219 214.949219 47.320312 215.5 47.101562 C 216.050781 46.878906 217.851562 49 219.496094 51.800781 C 223.019531 57.800781 224.679688 59.539062 227.800781 60.496094 C 229.601562 61.046875 230.21875 60.742188 230.648438 59.101562 C 230.964844 57.898438 231.800781 57 232.601562 57 C 235.101562 57 240.96875 53.648438 241.527344 51.898438 C 241.828125 50.953125 243 49.816406 244 49.5 C 247.199219 48.488281 247.417969 45.75 244.5 43.25 C 240.578125 39.894531 237.800781 39.574219 233.199219 41.941406 C 230.398438 43.382812 228.660156 45.199219 227.398438 48 C 226.410156 50.199219 225.308594 52 224.949219 52 C 224.585938 52 223.707031 50.199219 222.949219 47.898438 C 221.632812 43.898438 221.664062 43.753906 224.300781 41.824219 C 227.601562 39.40625 227.648438 37.5625 224.5 34.445312 C 221.699219 31.675781 217.882812 31.25 216.03125 33.5 C 215.375 34.300781 214.332031 34.710938 213.800781 34.378906 C 212.675781 33.679688 213.464844 29.898438 215.738281 25.101562 C 216.875 22.699219 217.046875 21.0625 216.363281 19.101562 C 215.429688 16.398438 211.722656 15.003906 210.527344 16.898438 Z M 194.28125 25.898438 C 194.941406 28.398438 193.546875 35.800781 191.492188 40.699219 C 190.066406 44.101562 189.785156 44.300781 188.828125 42.601562 C 187.441406 40.140625 188.394531 31.101562 190.460938 27.101562 C 192.320312 23.5 193.546875 23.113281 194.28125 25.898438 Z M 220.199219 39.199219 C 218.683594 40.71875 217.59375 39.601562 218.441406 37.398438 C 218.945312 36.101562 219.371094 35.96875 220.25 36.851562 C 221.113281 37.710938 221.101562 38.300781 220.199219 39.199219 Z M 239.398438 46.484375 C 241.847656 48.347656 241 50.316406 236.898438 52.300781 C 234.5 53.464844 233.246094 53.609375 232.300781 52.835938 C 230.578125 51.425781 230.691406 50.699219 233.109375 47.601562 C 235.453125 44.601562 236.644531 44.390625 239.398438 46.484375 "/>
<path style=" stroke:none;fill-rule:nonzero;fill:rgb(100%,100%,100%);fill-opacity:1;" d="M 293.398438 17.417969 C 288.441406 19.644531 283.574219 24.5 281.09375 29.699219 C 279.851562 32.300781 278.128906 35.921875 277.339844 37.601562 C 275.765625 40.933594 276.179688 53.101562 278.082031 59.5 C 281.621094 71.398438 283.671875 76.628906 285.808594 79.199219 C 288.058594 81.90625 288.699219 82.136719 292.398438 81.550781 C 294.636719 81.195312 300.5 78.671875 305.300781 76 C 310.101562 73.328125 314.984375 70.828125 316.050781 70.5 C 317.148438 70.160156 318 69.203125 318 68.300781 C 318 65.847656 312.800781 67.394531 304 72.464844 C 299.800781 74.882812 295.210938 77.179688 293.898438 77.511719 C 290.726562 78.324219 286.457031 75.101562 285.675781 71.300781 C 285.359375 69.769531 284.171875 65.101562 283.050781 61 C 281.929688 56.898438 280.945312 51.234375 280.882812 48.5 C 280.730469 41.898438 282 32 283 32 C 283.445312 32 284.738281 30.5 285.925781 28.601562 C 288.863281 23.898438 294.882812 20 299.199219 20 C 306.386719 20 310.167969 27.5 308.628906 38.699219 C 307.886719 44.101562 304.542969 52 303 52 C 302.386719 52 301.019531 50.5 299.902344 48.601562 C 297.203125 44 290.898438 39.796875 287.300781 40.191406 C 284.644531 40.484375 284.484375 40.800781 284.183594 46.300781 C 283.722656 54.800781 286.589844 57.082031 293 53.308594 C 295.699219 51.71875 296.03125 51.71875 297.800781 53.308594 C 299.730469 55.046875 302.601562 55.449219 305.398438 54.375 C 310.21875 52.53125 313.875 31.398438 310.6875 23.800781 C 308.214844 17.898438 299.5 14.683594 293.398438 17.417969 Z M 291.800781 46.101562 C 291.964844 46.871094 291.425781 48.398438 290.601562 49.5 C 289.195312 51.371094 289.097656 51.25 289.050781 47.648438 C 289.015625 45.050781 289.40625 43.945312 290.25 44.25 C 290.964844 44.507812 291.628906 45.300781 291.800781 46.101562 "/>
<path style=" stroke:none;fill-rule:nonzero;fill:rgb(100%,100%,100%);fill-opacity:1;" d="M 16.800781 26.023438 C 11.957031 28.851562 9.667969 43.601562 12.320312 54.898438 C 13.566406 60.199219 13.578125 61.28125 12.398438 61.699219 C 11.601562 61.984375 10.398438 61.972656 9.601562 61.667969 C 7.699219 60.949219 4.496094 63.421875 5.417969 64.898438 C 5.800781 65.519531 7.5 66.023438 9.300781 66.050781 C 11.101562 66.078125 13.242188 66.40625 14.199219 66.800781 C 15.761719 67.445312 21.332031 76.300781 22.632812 80.199219 C 23.265625 82.101562 24.546875 82.511719 25.433594 81.101562 C 25.753906 80.59375 24.96875 78.949219 23.648438 77.351562 C 22.355469 75.78125 20.492188 72.949219 19.5 71.050781 C 18.039062 68.25 17.964844 67.507812 19.101562 67.101562 C 19.875 66.824219 23.148438 65.6875 26.449219 64.550781 C 29.75 63.414062 32.578125 61.898438 32.800781 61.148438 C 33.089844 60.167969 32.601562 59.992188 31 60.5 C 27.398438 61.644531 18.117188 62.726562 17.199219 62.105469 C 14.355469 60.183594 13.027344 42.898438 15.089844 34.699219 C 15.769531 32 17.195312 29.265625 18.351562 28.449219 C 20.214844 27.132812 20.601562 27.1875 22.601562 29.054688 C 24.65625 30.976562 26.953125 37 27.457031 41.800781 C 27.59375 43.101562 28.046875 44.40625 28.5 44.800781 C 28.933594 45.179688 29.058594 42.398438 28.769531 38.699219 C 27.949219 28.199219 22.664062 22.605469 16.800781 26.023438 "/>
<path style=" stroke:none;fill-rule:nonzero;fill:rgb(100%,100%,100%);fill-opacity:1;" d="M 81.398438 31.398438 C 81.125 32.109375 82.03125 36.101562 83.398438 40.199219 C 84.765625 44.300781 86.21875 50.351562 86.601562 53.550781 L 87.300781 59.398438 L 82.398438 55.355469 C 76.101562 50.15625 74.171875 49.484375 71.800781 51.65625 C 70.199219 53.125 69.75 53.171875 68.949219 51.949219 C 68.425781 51.152344 67.988281 49.601562 67.972656 48.5 C 67.933594 45.601562 66.371094 43.660156 64.601562 44.308594 C 62.371094 45.128906 62.539062 47.199219 65.574219 56.199219 C 67.898438 63.101562 68.476562 64 70.601562 64 C 72.570312 64 73 63.5 73 61.199219 C 73 59.699219 73.695312 57.496094 74.5 56.449219 C 75.953125 54.5625 76.089844 54.601562 78.75 57.601562 C 80.257812 59.300781 82.3125 61.714844 83.300781 62.949219 C 84.582031 64.550781 85.734375 65.027344 87.300781 64.601562 C 88.5 64.273438 90.320312 64 91.300781 64 C 92.859375 64 93.011719 63.398438 92.429688 59.5 C 91.714844 54.699219 93.316406 53.011719 94.421875 57.398438 C 95.507812 61.699219 104.046875 66.910156 107 65.070312 C 108.136719 64.363281 108.15625 63.898438 107.101562 62.601562 C 106.367188 61.699219 105.273438 61 104.601562 61 C 103.023438 61 99.371094 57 98.664062 54.5 C 98.351562 53.390625 98.457031 50.898438 98.902344 48.898438 C 99.929688 44.300781 98.230469 40.003906 94.601562 38.019531 C 92.601562 36.925781 91.722656 36.878906 90.800781 37.800781 C 88.878906 39.71875 88.335938 39.300781 86.527344 34.5 C 84.871094 30.101562 82.460938 28.644531 81.398438 31.398438 Z M 94.980469 45.300781 C 94.949219 47.699219 93.742188 51 92.898438 51 C 92.410156 51 92 49.398438 92 47.5 C 92 45.101562 92.472656 44 93.5 44 C 94.300781 44 94.992188 44.605469 94.980469 45.300781 "/>
<path style=" stroke:none;fill-rule:nonzero;fill:rgb(100%,100%,100%);fill-opacity:1;" d="M 341.011719 34.199219 C 337.617188 39.800781 336.691406 43.75 338.011719 47 C 339.394531 50.398438 343.246094 53.210938 345.398438 52.394531 C 347.398438 51.636719 347.460938 49.386719 345.5 48.640625 C 343.277344 47.796875 343.679688 44 346.460938 39.5 C 349.363281 34.800781 349.644531 32.4375 347.398438 31.582031 C 344.355469 30.425781 342.953125 31 341.011719 34.199219 "/>
<path style=" stroke:none;fill-rule:nonzero;fill:rgb(100%,100%,100%);fill-opacity:1;" d="M 328.53125 33 C 328.199219 33.527344 328.378906 34.898438 328.914062 35.898438 C 330.140625 38.199219 330.335938 43 329.199219 43 C 327.398438 43 324 39.730469 324 38 C 324 36 320.742188 33.558594 319.601562 34.699219 C 318.574219 35.722656 318.96875 42.199219 320.285156 46 C 321.328125 49 321.90625 49.457031 324.351562 49.199219 C 325.949219 49.03125 327.769531 49.375 328.5 49.980469 C 330.25 51.433594 333.632812 49.699219 334.515625 46.898438 C 335.304688 44.398438 334.097656 34.945312 332.78125 33.300781 C 331.578125 31.800781 329.386719 31.644531 328.53125 33 "/>
<path style=" stroke:none;fill-rule:nonzero;fill:rgb(100%,100%,100%);fill-opacity:1;" d="M 421.800781 33.691406 C 418.035156 34.273438 416.976562 36 415.976562 43.199219 C 415.226562 48.601562 415.351562 49.785156 416.851562 51.5 C 417.816406 52.605469 419.457031 55.199219 420.515625 57.300781 C 423.585938 63.398438 428.257812 67 433.101562 67 C 437.601562 67 442.644531 64.027344 443.964844 60.601562 C 445.421875 56.824219 444 56.792969 439.898438 60.503906 C 434.984375 64.957031 432.074219 64.699219 427.347656 59.398438 C 424.671875 56.398438 422.097656 50.359375 423.199219 49.65625 C 427.601562 46.863281 435.230469 40.488281 436.078125 38.898438 C 436.988281 37.199219 436.867188 36.4375 435.457031 34.898438 C 433.71875 33.003906 429 32.585938 421.800781 33.691406 Z M 431.429688 37.800781 C 431.730469 38.277344 431.199219 39.398438 430.300781 40.1875 C 428.5 41.761719 422.578125 45 421.5 45 C 420.421875 45 421 39.398438 422.199219 38.199219 C 423.601562 36.800781 430.601562 36.496094 431.429688 37.800781 "/>
<path style=" stroke:none;fill-rule:nonzero;fill:rgb(100%,100%,100%);fill-opacity:1;" d="M 141.300781 35.1875 C 138.699219 36.46875 137.394531 39.792969 138.898438 41.300781 C 139.707031 42.109375 140.648438 41.777344 142.449219 40.050781 C 144.804688 37.789062 145 37.765625 147.5 39.402344 C 150.78125 41.546875 150.699219 43 147.300781 43 C 145.800781 43 143.851562 43.417969 143.101562 43.898438 C 141.089844 45.183594 142.601562 48 145.300781 48 C 149.0625 48 149.210938 48.898438 146.324219 54.199219 L 143.601562 59.199219 L 145.898438 61.085938 C 148.699219 63.378906 152.386719 63.515625 154.5 61.398438 C 156.441406 59.460938 155.5 57.648438 152.898438 58.3125 C 151.898438 58.570312 150.734375 58.375 150.441406 57.898438 C 149.640625 56.601562 153.800781 48.304688 155.601562 47.613281 C 157.5 46.878906 159 47.710938 159 49.5 C 159 52.398438 162.902344 59.726562 164.699219 60.199219 C 167.628906 60.96875 168.851562 60.101562 170.039062 56.398438 C 171.359375 52.300781 173.121094 52.003906 175.414062 55.5 C 176.992188 57.898438 181 58.90625 181 56.898438 C 181 56.359375 179.636719 53.199219 178.015625 50 C 173.363281 40.800781 169.59375 39.195312 161.398438 42.929688 C 156.898438 44.980469 154 44.261719 154 41.101562 C 154 38.636719 148.5 33.957031 145.699219 34.035156 C 144.5 34.070312 142.5 34.59375 141.300781 35.1875 Z M 169.605469 46.398438 C 170.257812 48.101562 167.445312 55 166.101562 55 C 164.863281 55 163.550781 48.601562 164.355469 46.5 C 165.085938 44.601562 168.886719 44.527344 169.605469 46.398438 "/>
<path style=" stroke:none;fill-rule:nonzero;fill:rgb(100%,100%,100%);fill-opacity:1;" d="M 263 38.898438 C 263 39.957031 263.671875 42.398438 264.507812 44.398438 C 267.230469 50.898438 265.820312 55.417969 262.199219 51.800781 C 261.230469 50.828125 260.601562 50.839844 258.898438 51.851562 C 257.699219 52.566406 256.585938 52.90625 256.300781 52.648438 C 256.023438 52.402344 255.035156 49.601562 254.09375 46.398438 C 252.359375 40.5 249.667969 38.132812 248.40625 41.398438 C 247.515625 43.714844 250.714844 53.5 253.378906 56.601562 L 255.699219 59.300781 L 262.101562 58 C 265.601562 57.289062 269.050781 56.019531 269.71875 55.199219 C 271.234375 53.332031 270.441406 47.300781 267.890625 41.300781 C 266.0625 37 263 35.496094 263 38.898438 "/>
<path style=" stroke:none;fill-rule:nonzero;fill:rgb(100%,100%,100%);fill-opacity:1;" d="M 44 43.746094 C 43.207031 44.039062 41.699219 44.980469 40.800781 45.75 C 39.746094 46.648438 38.300781 46.941406 37 46.523438 C 33.882812 45.515625 33.523438 48.101562 35.492188 57.300781 C 37.636719 67.300781 38.449219 69 41.101562 69 C 42.78125 69 43.058594 68.550781 42.5 66.75 C 42.113281 65.507812 41.578125 61.5 41.300781 57.800781 C 40.835938 51.601562 40.988281 50.910156 43.351562 48.550781 C 44.75 47.148438 46.394531 46 47 46 C 48.898438 46 49.269531 49.039062 47.59375 50.898438 C 45.441406 53.296875 45.484375 60.898438 47.679688 65.5 C 49.160156 68.601562 49.816406 69.058594 52.398438 68.800781 C 54.800781 68.558594 55.570312 67.851562 56.25 65.25 C 56.980469 62.449219 57.363281 62.140625 59 63.023438 C 63.277344 65.332031 64.222656 63.300781 61.425781 57.800781 C 60.15625 55.300781 60.054688 54.183594 60.960938 52.699219 C 62.507812 50.164062 60.800781 48.230469 56.300781 47.414062 C 54.398438 47.070312 52.457031 45.960938 51.894531 44.898438 C 50.925781 43.058594 47.300781 42.53125 44 43.746094 Z M 54.484375 52 C 55.097656 53 53.324219 63.972656 52.398438 64.898438 C 51.339844 65.960938 50 62.5 50 58.699219 C 50 53 52.660156 49.027344 54.484375 52 "/>
<path style=" stroke:none;fill-rule:nonzero;fill:rgb(100%,100%,100%);fill-opacity:1;" d="M 377.101562 44.90625 C 374.542969 46.585938 376.601562 49.191406 380.199219 48.832031 C 382.699219 48.582031 383.5 48.015625 383.5 46.5 C 383.5 44.234375 379.601562 43.261719 377.101562 44.90625 "/>
<path style=" stroke:none;fill-rule:nonzero;fill:rgb(100%,100%,100%);fill-opacity:1;" d="M 28 52.5 C 28 56.601562 29.089844 58.230469 30.40625 56.101562 C 31.144531 54.898438 29.863281 48 28.898438 48 C 28.398438 48 28 50 28 52.5 "/>
<path style=" stroke:none;fill-rule:nonzero;fill:rgb(100%,100%,100%);fill-opacity:1;" d="M 111.300781 71.550781 C 110.953125 72.449219 111.078125 73.464844 111.601562 73.96875 C 113.199219 75.515625 139.058594 79.339844 140.199219 78.199219 C 142.652344 75.746094 140.199219 74.277344 132.5 73.582031 C 128.300781 73.207031 123.914062 72.542969 122.699219 72.101562 C 121.472656 71.652344 118.601562 71.011719 116.199219 70.648438 C 112.800781 70.136719 111.773438 70.324219 111.300781 71.550781 "/>
</g>
</svg>